<mxfile host="app.diagrams.net" agent="Mozilla/5.0 (Windows NT 10.0; Win64; x64) AppleWebKit/537.36 (KHTML, like Gecko) Chrome/137.0.0.0 Safari/537.36" version="27.1.6">
  <diagram name="Page-1" id="rUJdfKz9vncy5Kz6UdqI">
    <mxGraphModel dx="2977" dy="1506" grid="1" gridSize="10" guides="1" tooltips="1" connect="1" arrows="1" fold="1" page="1" pageScale="1" pageWidth="850" pageHeight="1100" math="0" shadow="0">
      <root>
        <mxCell id="0" />
        <mxCell id="1" parent="0" />
        <mxCell id="wcs5450qU8OhKflRtmdg-60" value="Start" style="whiteSpace=wrap;strokeWidth=2;" vertex="1" parent="1">
          <mxGeometry x="185" y="20" width="95" height="54" as="geometry" />
        </mxCell>
        <mxCell id="wcs5450qU8OhKflRtmdg-61" value="CLI Args Parsed" style="rhombus;strokeWidth=2;whiteSpace=wrap;" vertex="1" parent="1">
          <mxGeometry x="152" y="124" width="162" height="162" as="geometry" />
        </mxCell>
        <mxCell id="wcs5450qU8OhKflRtmdg-62" value="Config File Provided?" style="rhombus;strokeWidth=2;whiteSpace=wrap;" vertex="1" parent="1">
          <mxGeometry x="131" y="336" width="203" height="203" as="geometry" />
        </mxCell>
        <mxCell id="wcs5450qU8OhKflRtmdg-63" value="Load from YAML" style="whiteSpace=wrap;strokeWidth=2;" vertex="1" parent="1">
          <mxGeometry x="20" y="612" width="174" height="54" as="geometry" />
        </mxCell>
        <mxCell id="wcs5450qU8OhKflRtmdg-64" value="Prompt for Key &amp; Token" style="whiteSpace=wrap;strokeWidth=2;" vertex="1" parent="1">
          <mxGeometry x="244" y="612" width="229" height="54" as="geometry" />
        </mxCell>
        <mxCell id="wcs5450qU8OhKflRtmdg-65" value="Validate Key &amp; Token" style="whiteSpace=wrap;strokeWidth=2;" vertex="1" parent="1">
          <mxGeometry x="127" y="716" width="210" height="54" as="geometry" />
        </mxCell>
        <mxCell id="wcs5450qU8OhKflRtmdg-66" value="❌ Exit with error" style="strokeWidth=2;shape=process;whiteSpace=wrap;size=0.04;" vertex="1" parent="1">
          <mxGeometry x="30" y="850" width="162" height="39" as="geometry" />
        </mxCell>
        <mxCell id="wcs5450qU8OhKflRtmdg-67" value="Decode Base64URL Key" style="whiteSpace=wrap;strokeWidth=2;" vertex="1" parent="1">
          <mxGeometry x="242" y="842" width="224" height="54" as="geometry" />
        </mxCell>
        <mxCell id="wcs5450qU8OhKflRtmdg-68" value="Construct JWK Key" style="whiteSpace=wrap;strokeWidth=2;" vertex="1" parent="1">
          <mxGeometry x="257" y="946" width="194" height="54" as="geometry" />
        </mxCell>
        <mxCell id="wcs5450qU8OhKflRtmdg-69" value="Decrypt JWE Token" style="whiteSpace=wrap;strokeWidth=2;" vertex="1" parent="1">
          <mxGeometry x="256" y="1050" width="196" height="54" as="geometry" />
        </mxCell>
        <mxCell id="wcs5450qU8OhKflRtmdg-70" value="--claims flag?" style="rhombus;strokeWidth=2;whiteSpace=wrap;" vertex="1" parent="1">
          <mxGeometry x="280" y="1154" width="149" height="149" as="geometry" />
        </mxCell>
        <mxCell id="wcs5450qU8OhKflRtmdg-71" value="Parse &amp; Pretty-print JWT Claims" style="whiteSpace=wrap;strokeWidth=2;" vertex="1" parent="1">
          <mxGeometry x="88" y="1375" width="260" height="78" as="geometry" />
        </mxCell>
        <mxCell id="wcs5450qU8OhKflRtmdg-72" value="Print raw payload" style="whiteSpace=wrap;strokeWidth=2;" vertex="1" parent="1">
          <mxGeometry x="398" y="1387" width="186" height="54" as="geometry" />
        </mxCell>
        <mxCell id="wcs5450qU8OhKflRtmdg-73" value="✅ Done" style="whiteSpace=wrap;strokeWidth=2;" vertex="1" parent="1">
          <mxGeometry x="293" y="1503" width="123" height="54" as="geometry" />
        </mxCell>
        <mxCell id="wcs5450qU8OhKflRtmdg-74" value="" style="curved=1;startArrow=none;endArrow=block;exitX=0.5;exitY=1;entryX=0.5;entryY=0;rounded=0;" edge="1" parent="1" source="wcs5450qU8OhKflRtmdg-60" target="wcs5450qU8OhKflRtmdg-61">
          <mxGeometry relative="1" as="geometry">
            <Array as="points" />
          </mxGeometry>
        </mxCell>
        <mxCell id="wcs5450qU8OhKflRtmdg-75" value="" style="curved=1;startArrow=none;endArrow=block;exitX=0.5;exitY=1;entryX=0.5;entryY=0;rounded=0;" edge="1" parent="1" source="wcs5450qU8OhKflRtmdg-61" target="wcs5450qU8OhKflRtmdg-62">
          <mxGeometry relative="1" as="geometry">
            <Array as="points" />
          </mxGeometry>
        </mxCell>
        <mxCell id="wcs5450qU8OhKflRtmdg-76" value="Yes" style="curved=1;startArrow=none;endArrow=block;exitX=0.04;exitY=1;entryX=0.5;entryY=-0.01;rounded=0;" edge="1" parent="1" source="wcs5450qU8OhKflRtmdg-62" target="wcs5450qU8OhKflRtmdg-63">
          <mxGeometry relative="1" as="geometry">
            <Array as="points">
              <mxPoint x="107" y="575" />
            </Array>
          </mxGeometry>
        </mxCell>
        <mxCell id="wcs5450qU8OhKflRtmdg-77" value="No" style="curved=1;startArrow=none;endArrow=block;exitX=0.96;exitY=1;entryX=0.5;entryY=-0.01;rounded=0;" edge="1" parent="1" source="wcs5450qU8OhKflRtmdg-62" target="wcs5450qU8OhKflRtmdg-64">
          <mxGeometry relative="1" as="geometry">
            <Array as="points">
              <mxPoint x="358" y="575" />
            </Array>
          </mxGeometry>
        </mxCell>
        <mxCell id="wcs5450qU8OhKflRtmdg-78" value="" style="curved=1;startArrow=none;endArrow=block;exitX=0.5;exitY=0.99;entryX=0.19;entryY=-0.01;rounded=0;" edge="1" parent="1" source="wcs5450qU8OhKflRtmdg-63" target="wcs5450qU8OhKflRtmdg-65">
          <mxGeometry relative="1" as="geometry">
            <Array as="points">
              <mxPoint x="107" y="691" />
            </Array>
          </mxGeometry>
        </mxCell>
        <mxCell id="wcs5450qU8OhKflRtmdg-79" value="" style="curved=1;startArrow=none;endArrow=block;exitX=0.5;exitY=0.99;entryX=0.81;entryY=-0.01;rounded=0;" edge="1" parent="1" source="wcs5450qU8OhKflRtmdg-64" target="wcs5450qU8OhKflRtmdg-65">
          <mxGeometry relative="1" as="geometry">
            <Array as="points">
              <mxPoint x="358" y="691" />
            </Array>
          </mxGeometry>
        </mxCell>
        <mxCell id="wcs5450qU8OhKflRtmdg-80" value="Invalid" style="curved=1;startArrow=none;endArrow=block;exitX=0.26;exitY=0.99;entryX=0.5;entryY=-0.01;rounded=0;" edge="1" parent="1" source="wcs5450qU8OhKflRtmdg-65" target="wcs5450qU8OhKflRtmdg-66">
          <mxGeometry relative="1" as="geometry">
            <Array as="points">
              <mxPoint x="111" y="806" />
            </Array>
          </mxGeometry>
        </mxCell>
        <mxCell id="wcs5450qU8OhKflRtmdg-81" value="Valid" style="curved=1;startArrow=none;endArrow=block;exitX=0.75;exitY=0.99;entryX=0.5;entryY=0;rounded=0;" edge="1" parent="1" source="wcs5450qU8OhKflRtmdg-65" target="wcs5450qU8OhKflRtmdg-67">
          <mxGeometry relative="1" as="geometry">
            <Array as="points">
              <mxPoint x="354" y="806" />
            </Array>
          </mxGeometry>
        </mxCell>
        <mxCell id="wcs5450qU8OhKflRtmdg-82" value="" style="curved=1;startArrow=none;endArrow=block;exitX=0.5;exitY=1;entryX=0.5;entryY=0;rounded=0;" edge="1" parent="1" source="wcs5450qU8OhKflRtmdg-67" target="wcs5450qU8OhKflRtmdg-68">
          <mxGeometry relative="1" as="geometry">
            <Array as="points" />
          </mxGeometry>
        </mxCell>
        <mxCell id="wcs5450qU8OhKflRtmdg-83" value="" style="curved=1;startArrow=none;endArrow=block;exitX=0.5;exitY=1;entryX=0.5;entryY=0;rounded=0;" edge="1" parent="1" source="wcs5450qU8OhKflRtmdg-68" target="wcs5450qU8OhKflRtmdg-69">
          <mxGeometry relative="1" as="geometry">
            <Array as="points" />
          </mxGeometry>
        </mxCell>
        <mxCell id="wcs5450qU8OhKflRtmdg-84" value="" style="curved=1;startArrow=none;endArrow=block;exitX=0.5;exitY=1;entryX=0.5;entryY=0;rounded=0;" edge="1" parent="1" source="wcs5450qU8OhKflRtmdg-69" target="wcs5450qU8OhKflRtmdg-70">
          <mxGeometry relative="1" as="geometry">
            <Array as="points" />
          </mxGeometry>
        </mxCell>
        <mxCell id="wcs5450qU8OhKflRtmdg-85" value="Yes" style="curved=1;startArrow=none;endArrow=block;exitX=0;exitY=0.9;entryX=0.5;entryY=0;rounded=0;" edge="1" parent="1" source="wcs5450qU8OhKflRtmdg-70" target="wcs5450qU8OhKflRtmdg-71">
          <mxGeometry relative="1" as="geometry">
            <Array as="points">
              <mxPoint x="218" y="1339" />
            </Array>
          </mxGeometry>
        </mxCell>
        <mxCell id="wcs5450qU8OhKflRtmdg-86" value="No" style="curved=1;startArrow=none;endArrow=block;exitX=1;exitY=0.9;entryX=0.5;entryY=0.01;rounded=0;" edge="1" parent="1" source="wcs5450qU8OhKflRtmdg-70" target="wcs5450qU8OhKflRtmdg-72">
          <mxGeometry relative="1" as="geometry">
            <Array as="points">
              <mxPoint x="491" y="1339" />
            </Array>
          </mxGeometry>
        </mxCell>
        <mxCell id="wcs5450qU8OhKflRtmdg-87" value="" style="curved=1;startArrow=none;endArrow=block;exitX=0.5;exitY=1;entryX=0;entryY=0.07;rounded=0;" edge="1" parent="1" source="wcs5450qU8OhKflRtmdg-71" target="wcs5450qU8OhKflRtmdg-73">
          <mxGeometry relative="1" as="geometry">
            <Array as="points">
              <mxPoint x="218" y="1478" />
            </Array>
          </mxGeometry>
        </mxCell>
        <mxCell id="wcs5450qU8OhKflRtmdg-88" value="" style="curved=1;startArrow=none;endArrow=block;exitX=0.5;exitY=1.01;entryX=1;entryY=0.07;rounded=0;" edge="1" parent="1" source="wcs5450qU8OhKflRtmdg-72" target="wcs5450qU8OhKflRtmdg-73">
          <mxGeometry relative="1" as="geometry">
            <Array as="points">
              <mxPoint x="491" y="1478" />
            </Array>
          </mxGeometry>
        </mxCell>
      </root>
    </mxGraphModel>
  </diagram>
</mxfile>
